<svg xmlns="http://www.w3.org/2000/svg" data-name="Layer 1" viewBox="0 0 128 160" x="0px" y="0px"><defs><style>.cls-1,.cls-2{fill:none;stroke:#000;stroke-linecap:round;stroke-linejoin:round;}.cls-1{stroke-width:4px;}.cls-2{stroke-width:3.94px;}</style></defs><title>Artboard 47</title><circle class="cls-1" cx="64" cy="64" r="62"/><path class="cls-1" d="M92,32c2.93-7.61-10-10-10-10S84.34,34.88,92,32Z"/><path class="cls-1" d="M101.91,41.95c7.45-3.31,0-14.07,0-14.07S94.46,38.64,101.91,41.95Z"/><path class="cls-1" d="M107.61,56.57c8.15-.16,5.46-13,5.46-13S102,50.63,107.61,56.57Z"/><path class="cls-1" d="M107.41,70.19c6.79,4.52,11.88-7.54,11.88-7.54S106.21,62.12,107.41,70.19Z"/><path class="cls-1" d="M102.74,83.09c5,6.43,13.66-3.39,13.66-3.39S104.16,75.06,102.74,83.09Z"/><path class="cls-1" d="M93.63,95c3.41,7.4,14.07-.19,14.07-.19S96.84,87.5,93.63,95Z"/><path class="cls-1" d="M36,32c-2.93-7.61,10-10,10-10S43.66,34.88,36,32Z"/><path class="cls-1" d="M26.09,41.95c-7.45-3.31,0-14.07,0-14.07S33.54,38.64,26.09,41.95Z"/><path class="cls-1" d="M20.39,56.57c-8.15-.16-5.46-13-5.46-13S26,50.63,20.39,56.57Z"/><path class="cls-1" d="M20.59,70.19C13.81,74.7,8.71,62.65,8.71,62.65S21.79,62.12,20.59,70.19Z"/><path class="cls-1" d="M25.26,83.09c-5,6.43-13.66-3.39-13.66-3.39S23.84,75.06,25.26,83.09Z"/><path class="cls-1" d="M34.37,95C31,102.4,20.3,94.8,20.3,94.8S31.16,87.5,34.37,95Z"/><path class="cls-1" d="M92,32c9.1,7.44,14.87,19.63,14.87,32.3A40,40,0,0,1,78,103c-7,2-17,4-20,12"/><path class="cls-1" d="M36,32c-9.1,7.44-14.87,19.63-14.87,32.3A40,40,0,0,0,50,103c7,2,17,4,20,12"/><circle class="cls-2" cx="64" cy="37" r="5"/><path class="cls-1" d="M61.57,42,59,83c-7.15-.81-11.08-4.88-14.58-10l8.26-3.13L37.08,65.59h0c-.05.66-.09,1.34-.09,2C37,82.12,49.09,92,64,92s27-9.88,27-24.37c0-.69,0-1.37-.09-2h0L75.32,69.91,83.58,73c-3.5,5.08-7.43,9.15-14.58,10L66.43,42"/><line class="cls-1" x1="55.74" y1="53" x2="59.74" y2="53"/><circle class="cls-1" cx="78" cy="53" r="4"/><circle class="cls-1" cx="50" cy="53" r="4"/><line class="cls-1" x1="72.26" y1="53" x2="68.32" y2="53"/><text x="0" y="143" fill="#000000" font-size="5px" font-weight="bold" font-family="'Helvetica Neue', Helvetica, Arial-Unicode, Arial, Sans-serif">Created by Juraj Sedlák</text><text x="0" y="148" fill="#000000" font-size="5px" font-weight="bold" font-family="'Helvetica Neue', Helvetica, Arial-Unicode, Arial, Sans-serif">from the Noun Project</text></svg>